<?xml version="1.0" standalone="no"?>
<!DOCTYPE svg PUBLIC "-//W3C//DTD SVG 20010904//EN"
 "http://www.w3.org/TR/2001/REC-SVG-20010904/DTD/svg10.dtd">
<svg version="1.0" xmlns="http://www.w3.org/2000/svg"
 width="2290.000000pt" height="3239.000000pt" viewBox="0 0 2290.000000 3239.000000"
 preserveAspectRatio="xMidYMid meet">
<metadata>
Created by potrace 1.16, written by Peter Selinger 2001-2019
</metadata>
<g transform="translate(0.000000,3239.000000) scale(0.100000,-0.100000)"
fill="#000000" stroke="none">
<path d="M9769 17706 c-210 -44 -372 -174 -470 -376 -44 -92 -61 -168 -139
-615 -39 -225 -114 -653 -167 -950 -103 -579 -118 -720 -93 -834 25 -115 83
-191 175 -233 41 -18 67 -22 140 -22 114 1 193 27 387 128 398 207 914 361
1413 420 181 22 699 22 880 0 505 -60 1022 -214 1420 -423 193 -102 260 -124
375 -125 79 -1 103 3 145 22 93 43 150 118 175 233 25 114 10 255 -94 839 -53
300 -128 727 -167 950 -84 477 -96 526 -149 628 -75 144 -166 236 -297 301
-99 49 -173 65 -303 65 -153 1 -208 -16 -529 -158 -267 -119 -363 -153 -521
-185 -159 -32 -286 -44 -495 -44 -209 0 -336 12 -495 44 -158 32 -254 66 -521
185 -141 62 -289 123 -330 134 -95 27 -251 34 -340 16z m457 -912 c37 -18 84
-78 102 -133 7 -19 12 -89 12 -157 l0 -122 138 -4 c130 -3 140 -5 191 -33 70
-39 101 -84 101 -150 0 -66 -31 -111 -101 -150 -51 -28 -61 -30 -191 -33
l-137 -4 -3 -136 c-2 -111 -7 -144 -22 -176 -42 -84 -115 -129 -181 -112 -41
10 -101 72 -125 129 -18 41 -24 77 -28 175 l-5 122 -107 0 c-125 0 -189 16
-243 61 -38 31 -77 94 -77 124 0 30 39 93 77 124 54 45 118 61 243 61 l107 0
5 123 c4 97 9 132 27 172 50 114 133 159 217 119z m2592 -5 c52 -26 98 -85
107 -140 9 -53 -30 -134 -80 -168 -53 -35 -127 -39 -184 -9 -60 31 -83 65 -89
131 -5 67 10 115 46 150 63 60 126 72 200 36z m-409 -444 c42 -28 91 -110 91
-150 0 -41 -49 -122 -92 -151 -34 -24 -52 -29 -99 -29 -49 1 -64 5 -96 31 -49
39 -73 87 -73 147 0 151 149 236 269 152z m863 -1 c88 -62 110 -162 53 -244
-76 -109 -213 -116 -291 -14 -26 33 -29 45 -29 110 0 65 3 76 30 110 66 81
156 95 237 38z m-427 -435 c21 -14 46 -45 61 -76 32 -64 27 -112 -17 -171 -63
-85 -172 -105 -247 -45 -56 44 -74 86 -70 160 5 75 25 108 89 141 57 30 131
26 184 -9z"/>
</g>
</svg>
